<!DOCTYPE svg PUBLIC "-//W3C//DTD SVG 1.1//EN" "http://www.w3.org/Graphics/SVG/1.1/DTD/svg11.dtd">
<!-- Uploaded to: SVG Repo, www.svgrepo.com, Transformed by: SVG Repo Mixer Tools -->
<svg fill="#ffffff" width="800px" height="800px" viewBox="0 0 96 96" xmlns="http://www.w3.org/2000/svg" stroke="#ffffff">
<g id="SVGRepo_bgCarrier" stroke-width="0"/>
<g id="SVGRepo_tracerCarrier" stroke-linecap="round" stroke-linejoin="round"/>
<g id="SVGRepo_iconCarrier">
<title/>
<path d="M48,0a48,48,0,0,0,0,96,6,6,0,0,0,0-12A36,36,0,1,1,84,48V66a6,6,0,0,1-12,0V48A24,24,0,1,0,48,72a23.7365,23.7365,0,0,0,12.2549-3.4783A17.9586,17.9586,0,0,0,96,66V48A48.0474,48.0474,0,0,0,48,0Zm0,60A12,12,0,1,1,60,48,12.0081,12.0081,0,0,1,48,60Z"/>
</g>
</svg>