<?xml version="1.0" encoding="UTF-8"?>
<svg version="1.1" xmlns="http://www.w3.org/2000/svg" width="500" height="500">
<path d="M0 0 C1.81003945 7.36082709 2.36049191 14.50143419 2.65795898 22.04614258 C2.83186486 26.33803334 3.18548675 30.51452253 3.76147461 34.77587891 C4.28120668 39.62210115 4.34312653 44.50611242 4.5 49.375 C4.5698932 51.52874608 4.64277353 53.68239744 4.71875 55.8359375 C4.74904297 56.78001465 4.77933594 57.7240918 4.81054688 58.69677734 C4.96492155 61.38838726 5.20098956 64.03591805 5.48461914 66.71533203 C6.03465018 72.04538136 6.31301494 77.36585388 6.52734375 82.71875 C6.56866928 83.71515503 6.60999481 84.71156006 6.65257263 85.73815918 C7.07669341 96.32279757 7.35130152 106.90919036 7.5625 117.5 C7.58334656 118.53036377 7.60419312 119.56072754 7.62567139 120.62231445 C8.66555053 173.45258697 8.28307391 226.291733 5.5 279.0625 C5.43428802 280.30980896 5.36857605 281.55711792 5.3008728 282.84222412 C5.11156489 286.38598136 4.9167204 289.92937321 4.71875 293.47265625 C4.63280327 295.04740974 4.63280327 295.04740974 4.54512024 296.65397644 C4.22832895 302.14572772 3.71618674 307.54702031 3 313 C2.89244709 314.61178097 2.80620334 316.22532508 2.75390625 317.83984375 C2.70459961 319.0937793 2.70459961 319.0937793 2.65429688 320.37304688 C2.59324346 322.07864554 2.53593368 323.78438244 2.48242188 325.49023438 C2.24873997 331.2176457 1.38702708 336.43504521 0 342 C-2.87506421 342.02712325 -5.74986908 342.04689851 -8.625 342.0625 C-9.43324219 342.07087891 -10.24148437 342.07925781 -11.07421875 342.08789062 C-15.52660169 342.10598974 -19.60356589 341.75517976 -24 341 C-26.02128642 340.96379786 -28.04265931 340.92878012 -30.06420898 340.91308594 C-40.94436715 340.7287766 -49.28602969 337.65537445 -59 333 C-60.76990285 332.20625527 -62.54062777 331.41433872 -64.3125 330.625 C-65.16457031 330.23054688 -66.01664063 329.83609375 -66.89453125 329.4296875 C-69.4064145 328.27327332 -71.92438725 327.13544796 -74.44921875 326.0078125 C-106.1841953 311.83421183 -106.1841953 311.83421183 -119.671875 303.8984375 C-123.07787887 301.95557614 -126.53732841 300.21599762 -130.0625 298.5 C-136.10859256 295.53502353 -141.76800976 292.1928914 -147.453125 288.6015625 C-149.86699228 287.0258585 -149.86699228 287.0258585 -152 286 C-152 285.34 -152 284.68 -152 284 C-152.5465625 283.90847656 -153.093125 283.81695312 -153.65625 283.72265625 C-156.6946553 282.78581462 -158.87926632 281.23749316 -161.5 279.4375 C-162.54671875 278.72207031 -163.5934375 278.00664062 -164.671875 277.26953125 C-165.21521484 276.89650879 -165.75855469 276.52348633 -166.31835938 276.13916016 C-168.01548441 274.98951071 -169.72983896 273.87170622 -171.453125 272.76171875 C-172.54109375 272.05660156 -173.6290625 271.35148437 -174.75 270.625 C-176.25820312 269.65433594 -176.25820312 269.65433594 -177.796875 268.6640625 C-178.88742188 267.84035156 -178.88742188 267.84035156 -180 267 C-180 266.34 -180 265.68 -180 265 C-180.7734375 264.6596875 -180.7734375 264.6596875 -181.5625 264.3125 C-184.89547005 262.51782382 -188.14703671 260.50034985 -191 258 C-191 257.34 -191 256.68 -191 256 C-191.66 256 -192.32 256 -193 256 C-193 255.34 -193 254.68 -193 254 C-193.57073242 253.75378906 -194.14146484 253.50757813 -194.72949219 253.25390625 C-197.3784281 251.79101003 -199.18548546 250.07354681 -201.328125 247.9375 C-202.12734375 247.14085937 -202.9265625 246.34421875 -203.75 245.5234375 C-204.575 244.69070313 -205.4 243.85796875 -206.25 243 C-207.51070312 241.75089844 -207.51070312 241.75089844 -208.796875 240.4765625 C-209.5909375 239.67992187 -210.385 238.88328125 -211.203125 238.0625 C-212.29608887 236.96615234 -212.29608887 236.96615234 -213.41113281 235.84765625 C-215 234 -215 234 -215 232 C-215.66 232 -216.32 232 -217 232 C-218.17333984 230.56640625 -218.17333984 230.56640625 -219.4609375 228.5625 C-219.93273437 227.83160156 -220.40453125 227.10070312 -220.890625 226.34765625 C-221.38046875 225.57292969 -221.8703125 224.79820312 -222.375 224 C-222.85710937 223.25621094 -223.33921875 222.51242187 -223.8359375 221.74609375 C-226.89163842 216.97156106 -229.57998469 212.12448605 -232 207 C-232.39445312 206.17371094 -232.78890625 205.34742188 -233.1953125 204.49609375 C-242.01907586 184.9577606 -242.47159286 162.23125337 -235.24609375 142.08984375 C-228.91168428 126.38289113 -219.74245127 113.14197255 -208 101 C-207.39865234 100.37818848 -206.79730469 99.75637695 -206.17773438 99.11572266 C-204.14827653 97.02648769 -202.10794793 94.94857738 -200.0625 92.875 C-199.39903564 92.19832275 -198.73557129 91.52164551 -198.05200195 90.82446289 C-197.42769287 90.19918701 -196.80338379 89.57391113 -196.16015625 88.9296875 C-195.31916382 88.08253174 -195.31916382 88.08253174 -194.46118164 87.21826172 C-193 86 -193 86 -191 86 C-191 85.34 -191 84.68 -191 84 C-189.26451831 82.55473264 -187.46024037 81.1912778 -185.625 79.875 C-184.12839844 78.78832031 -184.12839844 78.78832031 -182.6015625 77.6796875 C-180 76 -180 76 -178 76 C-178 75.34 -178 74.68 -178 74 C-176.02 73.505 -176.02 73.505 -174 73 C-174 72.34 -174 71.68 -174 71 C-172.53466797 69.82666016 -172.53466797 69.82666016 -170.4921875 68.5390625 C-169.38230469 67.83136719 -169.38230469 67.83136719 -168.25 67.109375 C-167.46625 66.61953125 -166.6825 66.1296875 -165.875 65.625 C-164.35136288 64.65916901 -162.82792192 63.69302848 -161.3046875 62.7265625 C-160.56959961 62.26540039 -159.83451172 61.80423828 -159.07714844 61.32910156 C-157.22706165 60.14528956 -155.43012534 58.91000217 -153.6328125 57.6484375 C-151 56 -151 56 -148 56 C-148 55.34 -148 54.68 -148 54 C-147.26394531 53.60167969 -146.52789062 53.20335937 -145.76953125 52.79296875 C-144.79371094 52.26316406 -143.81789063 51.73335937 -142.8125 51.1875 C-141.84957031 50.66542969 -140.88664062 50.14335937 -139.89453125 49.60546875 C-138.00655426 48.55829123 -136.14673113 47.45814312 -134.32421875 46.30078125 C-132 45 -132 45 -129 45 C-129 44.34 -129 43.68 -129 43 C-127.8140625 42.443125 -126.628125 41.88625 -125.40625 41.3125 C-117.66443114 37.66673243 -109.94129438 34.00242424 -102.3125 30.125 C-88.4532883 23.11938221 -74.33582282 16.40018231 -59.75 11.046875 C-55.98990432 9.61547494 -52.3650752 7.93289731 -48.73046875 6.2109375 C-40.87442696 2.72685602 -34.38774866 1.37263712 -25.8125 0.8125 C-24.707854 0.73209473 -23.60320801 0.65168945 -22.46508789 0.56884766 C-14.96684187 0.05111819 -7.516323 -0.26897379 0 0 Z M-54.69140625 50.48828125 C-57.19189565 51.63077168 -59.69739604 52.75152214 -62.21484375 53.85546875 C-70.47544301 57.48053431 -78.61069142 61.23285177 -86.65234375 65.32421875 C-92.03831216 68.02034529 -97.51478754 70.51251993 -103 73 C-103 73.66 -103 74.32 -103 75 C-103.71542969 75.11214844 -104.43085938 75.22429687 -105.16796875 75.33984375 C-108.19115998 76.04456005 -110.56322688 77.13287798 -113.3125 78.5625 C-114.19550781 79.01753906 -115.07851562 79.47257812 -115.98828125 79.94140625 C-116.98408203 80.46541016 -116.98408203 80.46541016 -118 81 C-118 81.66 -118 82.32 -118 83 C-118.54140625 83.10183594 -119.0828125 83.20367187 -119.640625 83.30859375 C-122.60596581 84.17757607 -125.05524946 85.55472291 -127.75 87.0625 C-128.73484375 87.61035156 -129.7196875 88.15820312 -130.734375 88.72265625 C-131.48203125 89.14417969 -132.2296875 89.56570312 -133 90 C-133 90.66 -133 91.32 -133 92 C-133.57347168 92.11013428 -134.14694336 92.22026855 -134.73779297 92.33374023 C-137.2871609 93.08457394 -139.00664818 94.15733951 -141.1953125 95.66015625 C-141.98856934 96.2022876 -142.78182617 96.74441895 -143.59912109 97.30297852 C-144.43266113 97.88362061 -145.26620117 98.4642627 -146.125 99.0625 C-146.98303223 99.65667725 -147.84106445 100.25085449 -148.72509766 100.86303711 C-163.88833789 111.43584891 -183.12988506 125.30497475 -192 142 C-192 142.66 -192 143.32 -192 144 C-192.66 144 -193.32 144 -194 144 C-201.14488038 157.97760579 -203.42794293 171.61731404 -199.06640625 187.125 C-197.24181541 192.04404343 -194.72110048 196.52647559 -192 201 C-191.34 201 -190.68 201 -190 201 C-189.72929687 201.5775 -189.45859375 202.155 -189.1796875 202.75 C-180.61873813 219.07816834 -163.27102514 231.24358588 -148.75 241.8125 C-147.99315918 242.36413818 -147.23631836 242.91577637 -146.45654297 243.48413086 C-139.29502168 249.25454843 -139.29502168 249.25454843 -131 252 C-131 252.66 -131 253.32 -131 254 C-130.34515625 254.35191406 -129.6903125 254.70382812 -129.015625 255.06640625 C-123.97664832 257.79229335 -118.99019605 260.5772318 -114.0625 263.5 C-108.17139381 266.9560148 -102.13268027 269.99999895 -96 273 C-94.08858033 273.95111508 -92.17933886 274.90649404 -90.27050781 275.86279297 C-88.92142048 276.53864073 -87.57180869 277.2134426 -86.22167969 277.88720703 C-82.70902855 279.64018562 -79.20196373 281.40319012 -75.703125 283.18359375 C-74.99897461 283.54018066 -74.29482422 283.89676758 -73.56933594 284.26416016 C-72.237547 284.93885361 -70.90733211 285.61666789 -69.57910156 286.29833984 C-65.77241569 288.22166538 -61.94478855 289.81439125 -57.93701172 291.26977539 C-54.98953133 292.38093166 -52.16030102 293.71932726 -49.3125 295.0625 C-45.57641033 296.82092304 -41.8504363 298.50697368 -38 300 C-36.33812633 286.57593307 -35.65980468 273.19746454 -35.34204102 259.68554688 C-35.31037842 258.39068359 -35.27871582 257.09582031 -35.24609375 255.76171875 C-35.21020142 254.059552 -35.21020142 254.059552 -35.17358398 252.32299805 C-35.10167061 249.92644998 -34.96333585 247.55496216 -34.76641846 245.16473389 C-33.68439102 231.74696589 -33.85541543 218.3194668 -33.8671875 204.8671875 C-33.86696387 202.13965824 -33.8655422 199.41212978 -33.86428833 196.68460083 C-33.86247959 190.9910635 -33.86483921 185.29753924 -33.86962891 179.60400391 C-33.87507426 173.05617378 -33.87330162 166.5083748 -33.8678025 159.96054542 C-33.86324049 154.29808822 -33.86263569 148.63564029 -33.86524117 142.97318184 C-33.86678638 139.60888158 -33.86664363 136.24460743 -33.86370468 132.88030624 C-33.86114432 129.1270517 -33.86506585 125.37385569 -33.87060547 121.62060547 C-33.86756912 119.98682449 -33.86756912 119.98682449 -33.86447144 118.32003784 C-33.88221593 111.77840342 -34.20986943 105.31813207 -34.76884747 98.80005169 C-35.05463303 95.3382062 -35.17353602 91.90634833 -35.24609375 88.43359375 C-35.27775635 87.13228516 -35.30941895 85.83097656 -35.34204102 84.49023438 C-35.35743927 83.82725342 -35.37283752 83.16427246 -35.38870239 82.48120117 C-35.69669085 69.58228226 -36.41378717 56.81290364 -38 44 C-43.25290331 44 -49.99254946 48.31807416 -54.69140625 50.48828125 Z " fill="#000000" transform="translate(256,80)"/>
<path d="M0 0 C7.44179693 -0.13014107 14.77317394 0.25288372 22.1875 0.875 C23.22841797 0.95363281 24.26933594 1.03226562 25.34179688 1.11328125 C26.35693359 1.19707031 27.37207031 1.28085938 28.41796875 1.3671875 C29.77571411 1.47716064 29.77571411 1.47716064 31.16088867 1.58935547 C34.55288527 2.07996844 37.72517013 3.00184545 41 4 C40.73597149 8.37434141 40.46933952 12.74851459 40.20043945 17.12255859 C40.10957882 18.60624037 40.0193926 20.08996363 39.92993164 21.57373047 C39.80017663 23.72374931 39.66788241 25.87360025 39.53515625 28.0234375 C39.456604 29.31169434 39.37805176 30.59995117 39.29711914 31.92724609 C39.09856887 34.90251758 38.81280129 37.86056233 38.49780273 40.82568359 C37.95345551 46.13434164 37.70266138 51.4343641 37.5 56.765625 C37.45939453 57.76148621 37.41878906 58.75734741 37.37695312 59.78338623 C37.24851531 62.93881941 37.12388245 66.09438494 37 69.25 C36.83592798 73.40115019 36.66962057 77.55219771 36.5 81.703125 C36.45906723 82.70777802 36.41813446 83.71243103 36.3759613 84.74752808 C36.15944433 89.86975121 35.8822366 94.97477175 35.47265625 100.0859375 C34.7190945 109.83062639 34.6357482 119.60662317 34.4375 129.375 C34.39419727 131.38281936 34.35057975 133.39063196 34.30664062 135.3984375 C34.20080251 140.26555474 34.09920808 145.13274329 34 150 C35.00743759 149.92894547 36.01487518 149.85789093 37.05284119 149.78468323 C48.02810959 149.05135534 58.94466283 148.86702051 69.94140625 148.90234375 C71.6883083 148.90421533 73.43521088 148.90563572 75.18211365 148.90663147 C79.71765667 148.91039853 84.25316623 148.92017707 88.78869629 148.93133545 C93.44180855 148.94167661 98.09492637 148.94615594 102.74804688 148.95117188 C111.83204573 148.9618063 120.91602005 148.97881021 130 149 C126.73407833 145.69893888 123.45275723 142.63577124 119.8125 139.75 C118.95269531 139.06421875 118.09289062 138.3784375 117.20703125 137.671875 C115.11567926 135.98133846 115.11567926 135.98133846 113 135 C113 134.34 113 133.68 113 133 C112.2575 132.71125 111.515 132.4225 110.75 132.125 C108.43260203 131.17697356 106.22082885 130.15154089 104 129 C104 128.34 104 127.68 104 127 C103.41677979 126.87399414 102.83355957 126.74798828 102.23266602 126.61816406 C100.02017716 126.0055865 98.28617568 125.20874872 96.27734375 124.109375 C95.57859131 123.73159912 94.87983887 123.35382324 94.15991211 122.96459961 C93.05981812 122.3633728 93.05981812 122.3633728 91.9375 121.75 C85.40155558 118.22752154 78.82572028 114.93373291 72 112 C71.74989783 108.06783814 72.34680893 105.80303693 74.25 102.375 C76.11437357 98.84470159 77.64399226 95.40182428 78.9375 91.625 C81.07760681 85.46889028 83.98127077 79.76577284 87 74 C91.81919471 74.67487737 95.91883866 76.57965909 100.3125 78.5625 C101.05306641 78.89185547 101.79363281 79.22121094 102.55664062 79.56054688 C104.37311562 80.36917123 106.18683931 81.18397116 108 82 C108 82.66 108 83.32 108 84 C109.04994141 84.14888672 109.04994141 84.14888672 110.12109375 84.30078125 C123.40155062 87.52629248 136.1507119 99.13650772 147 107 C147.74813965 107.51715576 148.4962793 108.03431152 149.26708984 108.56713867 C149.8389502 109.03998291 150.41081055 109.51282715 151 110 C151 110.66 151 111.32 151 112 C151.87483032 112.39022339 151.87483032 112.39022339 152.76733398 112.78833008 C167.9016966 121.00176273 179.32434708 139.77810227 188.125 154.125 C188.50398437 154.74068848 188.88296875 155.35637695 189.2734375 155.99072266 C191.8029347 160.26042899 193.45768314 163.64363324 192.49023438 168.62451172 C192.19439453 169.55021973 191.89855469 170.47592773 191.59375 171.4296875 C191.26568359 172.46488525 190.93761719 173.50008301 190.59960938 174.56665039 C190.23673828 175.65840576 189.87386719 176.75016113 189.5 177.875 C189.13197266 178.99962646 188.76394531 180.12425293 188.38476562 181.28295898 C185.50376756 189.8968209 182.13566237 197.91997242 178 206 C177.36418806 207.30974609 176.73147867 208.62100194 176.1015625 209.93359375 C171.5817376 219.28018687 166.52604908 228.21233548 161 237 C160.64228516 237.58104492 160.28457031 238.16208984 159.91601562 238.76074219 C158.99856379 240.20984126 158.00526054 241.61037514 157 243 C156.34 243 155.68 243 155 243 C154.814375 243.66 154.62875 244.32 154.4375 245 C152.39191226 249.26905268 149.42815357 252.74163706 146 256 C145.34 256 144.68 256 144 256 C143.74992188 256.57363281 143.49984375 257.14726562 143.2421875 257.73828125 C138.50276508 266.36760698 128.85083489 272.45885743 121 278 C119.97261719 278.76699219 118.94523437 279.53398437 117.88671875 280.32421875 C115 282 115 282 112.859375 282.0859375 C110.08944862 280.46820739 108.91735639 278.33979822 107.25 275.625 C106.63640625 274.64789063 106.0228125 273.67078125 105.390625 272.6640625 C104 270 104 270 104 267 C103.34 267 102.68 267 102 267 C101.44570313 266.02417969 100.89140625 265.04835938 100.3203125 264.04296875 C99.58859909 262.75777981 98.85682508 261.47262536 98.125 260.1875 C97.76019531 259.54490234 97.39539063 258.90230469 97.01953125 258.24023438 C95.41916099 255.43231202 93.79357134 252.69035702 92 250 C92.20694182 247.39556144 92.65925796 246.32451623 94.55859375 244.515625 C95.48865234 243.88914062 95.48865234 243.88914062 96.4375 243.25 C97.05496094 242.82203125 97.67242187 242.3940625 98.30859375 241.953125 C100 241 100 241 102 241 C102 240.34 102 239.68 102 239 C106.47058824 235 106.47058824 235 109 235 C109 234.34 109 233.68 109 233 C109.66 233 110.32 233 111 233 C111 232.34 111 231.68 111 231 C111.66 231 112.32 231 113 231 C113 230.34 113 229.68 113 229 C113.66 229 114.32 229 115 229 C115 228.34 115 227.68 115 227 C115.66 227 116.32 227 117 227 C117.66 225.35 118.32 223.7 119 222 C119.66 222 120.32 222 121 222 C121.24621094 221.46503906 121.49242187 220.93007813 121.74609375 220.37890625 C123.89758008 216.29711443 126.62156861 212.58255152 129.22265625 208.77734375 C131.11030235 206.0774312 131.11030235 206.0774312 132 203 C132.66 203 133.32 203 134 203 C134.18369141 202.15695312 134.18369141 202.15695312 134.37109375 201.296875 C135.0519869 198.81013481 135.99352325 196.59485224 137.0625 194.25 C137.42472656 193.45078125 137.78695312 192.6515625 138.16015625 191.828125 C138.43730469 191.22484375 138.71445312 190.6215625 139 190 C114.15023955 189.83836234 114.15023955 189.83836234 89.3125 190.5 C70.88585317 191.30901542 52.43989679 191.08815779 34 191 C34.38663955 214.3799439 35.22663212 237.73184776 36.34054184 261.08762741 C36.43572816 263.08776858 36.5297193 265.08796652 36.62368774 267.08816528 C38.10530169 300.08140293 38.10530169 300.08140293 40.91282654 332.97976685 C40.94159378 333.64644379 40.97036102 334.31312073 41 335 C38.90081133 337.09918867 34.6472061 336.70503882 31.75 337 C30.91621826 337.08685059 30.08243652 337.17370117 29.22338867 337.26318359 C19.50238458 338.22383905 9.75845316 338.63102366 0 339 C-1.32673631 336.34652737 -1.3018391 334.1009492 -1.5 331.13671875 C-1.5825 329.93853516 -1.665 328.74035156 -1.75 327.50585938 C-1.8325 326.24580078 -1.915 324.98574219 -2 323.6875 C-2.16631536 321.23304909 -2.33298054 318.77862185 -2.5 316.32421875 C-2.58185547 315.09993164 -2.66371094 313.87564453 -2.74804688 312.61425781 C-2.98550332 309.20795438 -3.25439291 305.80563519 -3.53125 302.40234375 C-4.12462943 294.80024922 -4.36199513 287.19404139 -4.60546875 279.57421875 C-4.77637689 274.64145617 -4.99214925 269.74669582 -5.49609375 264.8359375 C-6.26659367 256.82645499 -6.38841362 248.7898861 -6.5625 240.75 C-6.59376984 239.34488159 -6.59376984 239.34488159 -6.62567139 237.91137695 C-7.61363152 191.40008107 -7.59754661 144.76009452 -6.5625 98.25 C-6.53316376 96.89515503 -6.53316376 96.89515503 -6.50323486 95.51293945 C-6.32434729 87.64335721 -6.06436282 79.82228063 -5.26098633 71.98730469 C-4.6980275 65.54355887 -4.4824895 59.0728061 -4.18405151 52.61236572 C-3.5711684 39.44037981 -2.89784281 26.27668993 -1.9375 13.125 C-1.85830322 12.00996094 -1.77910645 10.89492187 -1.69750977 9.74609375 C-1.62072998 8.73933594 -1.5439502 7.73257813 -1.46484375 6.6953125 C-1.36610962 5.3961792 -1.36610962 5.3961792 -1.26538086 4.07080078 C-1 2 -1 2 0 0 Z " fill="#000000" transform="translate(282,82)"/>
<path d="M0 0 C0.33 0.99 0.66 1.98 1 3 C-1.2375915 5.32478781 -3.49204232 7.63250154 -5.75 9.9375 C-6.70132813 10.9265332 -6.70132813 10.9265332 -7.671875 11.93554688 C-8.6 12.87817383 -8.6 12.87817383 -9.546875 13.83984375 C-10.39523926 14.71177368 -10.39523926 14.71177368 -11.26074219 15.60131836 C-13.17525154 17.14093431 -14.59987554 17.59308235 -17 18 C-11.72898586 11.58930713 -5.90871848 5.81409488 0 0 Z " fill="#000000" transform="translate(59,170)"/>
<path d="M0 0 C0.66 0 1.32 0 2 0 C2 7.26 2 14.52 2 22 C1.67 22 1.34 22 1 22 C0.637111 18.52168452 0.28615172 15.04226909 -0.0625 11.5625 C-0.16626953 10.56927734 -0.27003906 9.57605469 -0.37695312 8.55273438 C-0.47041016 7.60849609 -0.56386719 6.66425781 -0.66015625 5.69140625 C-0.74918213 4.81685791 -0.83820801 3.94230957 -0.92993164 3.04125977 C-0.9530542 2.36764404 -0.97617676 1.69402832 -1 1 C-0.67 0.67 -0.34 0.34 0 0 Z " fill="#000000" transform="translate(218,122)"/>
<path d="M0 0 C3.37462715 0.54723683 5.08235 1.0549 8 3 C7.05125 2.979375 6.1025 2.95875 5.125 2.9375 C2.09333717 2.77448174 2.09333717 2.77448174 0 4 C-1.13350534 6.01669827 -1.13350534 6.01669827 -2 8 C-2.33 7.34 -2.66 6.68 -3 6 C-2.06553465 3.96855359 -1.06775224 1.96466413 0 0 Z " fill="#000000" transform="translate(369,156)"/>
<path d="M0 0 C0.90492188 0.02320312 1.80984375 0.04640625 2.7421875 0.0703125 C4.10730469 0.09738281 4.10730469 0.09738281 5.5 0.125 C6.19867188 0.14820312 6.89734375 0.17140625 7.6171875 0.1953125 C6.6271875 1.6803125 6.6271875 1.6803125 5.6171875 3.1953125 C2.3171875 2.8653125 -0.9828125 2.5353125 -4.3828125 2.1953125 C-2.3828125 0.1953125 -2.3828125 0.1953125 0 0 Z " fill="#000000" transform="translate(220.3828125,81.8046875)"/>
<path d="M0 0 C1.1171875 3.71875 1.1171875 3.71875 0.0625 6.25 C-0.4634375 7.11625 -0.4634375 7.11625 -1 8 C-0.34 8.33 0.32 8.66 1 9 C-0.32 9.33 -1.64 9.66 -3 10 C-2.67 11.32 -2.34 12.64 -2 14 C-2.66 14 -3.32 14 -4 14 C-4.68041782 8.72676192 -2.24786337 4.60611289 0 0 Z " fill="#000000" transform="translate(358,180)"/>
<path d="M0 0 C0.66 0.33 1.32 0.66 2 1 C0.3125 3.5 0.3125 3.5 -2 6 C-4.75 6.3125 -4.75 6.3125 -7 6 C-4.74259377 3.66475218 -2.7194239 1.81294927 0 0 Z " fill="#000000" transform="translate(97,141)"/>
<path d="M0 0 C1.65 0.33 3.3 0.66 5 1 C1.8745041 3.64465038 -1.08788267 4.84414715 -5 6 C-4.67 5.01 -4.34 4.02 -4 3 C-3.01 2.67 -2.02 2.34 -1 2 C-0.67 1.34 -0.34 0.68 0 0 Z " fill="#000000" transform="translate(186,134)"/>
</svg>
